<svg xmlns="http://www.w3.org/2000/svg" xmlns:xlink="http://www.w3.org/1999/xlink" width="18" height="23" viewBox="0 0 18 23"><defs><path id="9pf6a" d="M1178.735 219.707c-.714 0-1.294.579-1.294 1.293v15.531c0 .713.58 1.293 1.294 1.293h10.353c.715 0 1.295-.58 1.295-1.293V221c0-.714-.58-1.293-1.295-1.293z"/><path id="9pf6d" d="M1178.735 219.707h10.353c.714 0 1.294.58 1.294 1.294v15.53c0 .714-.58 1.294-1.294 1.294h-10.353c-.715 0-1.294-.58-1.294-1.294V221c0-.714.58-1.294 1.294-1.294z"/><path id="9pf6e" d="M1182.042 223.589v10.353"/><path id="9pf6f" d="M1185.853 223.589v10.353"/><path id="9pf6g" d="M1175.5 220.353h16.823"/><path id="9pf6b" d="M1182.617 215.824a2.588 2.588 0 0 0-2.587 2.589V221h7.764v-2.587a2.588 2.588 0 0 0-2.588-2.589z"/><path id="9pf6i" d="M1182.617 215.824h2.59a2.588 2.588 0 0 1 2.587 2.588V221h-7.765v-2.588a2.588 2.588 0 0 1 2.588-2.588z"/><clipPath id="9pf6c"><use xlink:href="#9pf6a"/></clipPath><clipPath id="9pf6h"><use xlink:href="#9pf6b"/></clipPath></defs><g><g transform="translate(-1175 -215)"/><g clip-path="url(#9pf6c)" transform="translate(-1175 -215)"><use fill="#fff" fill-opacity="0" stroke="#f4583f" stroke-miterlimit="50" stroke-width="2" xlink:href="#9pf6d"/></g><g transform="translate(-1175 -215)"><use fill="#fff" fill-opacity="0" stroke="#f4583f" stroke-linecap="round" stroke-miterlimit="50" xlink:href="#9pf6e"/></g><g transform="translate(-1175 -215)"><use fill="#fff" fill-opacity="0" stroke="#f4583f" stroke-linecap="round" stroke-miterlimit="50" xlink:href="#9pf6f"/></g><g transform="translate(-1175 -215)"><use fill="#fff" fill-opacity="0" stroke="#f4583f" stroke-linecap="round" stroke-miterlimit="50" xlink:href="#9pf6g"/></g><g transform="translate(-1175 -215)"/><g clip-path="url(#9pf6h)" transform="translate(-1175 -215)"><use fill="#fff" fill-opacity="0" stroke="#f4583f" stroke-linecap="round" stroke-linejoin="round" stroke-miterlimit="50" stroke-width="2" xlink:href="#9pf6i"/></g></g></svg>